<svg xmlns="http://www.w3.org/2000/svg" xmlns:xlink="http://www.w3.org/1999/xlink">
<symbol id="sprite">
  <symbol id="phone" viewBox="0 0 20 20" fill="none">
      <path d="M15.8147 12.3893C15.4047 11.9629 14.9101 11.735 14.3859 11.735C13.866 11.735 13.3672 11.9587 12.9402 12.3851L11.6044 13.7147C11.4945 13.6556 11.3846 13.6007 11.2789 13.5459C11.1267 13.4699 10.983 13.3981 10.8604 13.3222C9.6091 12.5286 8.47196 11.4944 7.38132 10.1563C6.85291 9.48936 6.49782 8.92795 6.23995 8.35809C6.58659 8.04151 6.90786 7.71226 7.22068 7.39567C7.33905 7.27748 7.45741 7.15507 7.57578 7.03688C8.4635 6.15044 8.4635 5.00229 7.57578 4.11585L6.42173 2.96348C6.29068 2.83262 6.15541 2.69755 6.02859 2.56247C5.77495 2.30076 5.50863 2.03061 5.23386 1.77734C4.82381 1.37211 4.33345 1.15683 3.81772 1.15683C3.30199 1.15683 2.80317 1.37211 2.38045 1.77734C2.37622 1.78156 2.37622 1.78156 2.37199 1.78578L0.934715 3.23363C0.393623 3.77394 0.0850312 4.43243 0.0173946 5.19646C-0.0840601 6.42903 0.279486 7.57718 0.558487 8.32854C1.24331 10.1732 2.26631 11.8827 3.79236 13.7147C5.64391 15.9224 7.87168 17.6657 10.4165 18.8941C11.3888 19.3542 12.6866 19.8987 14.1365 19.9916C14.2253 19.9958 14.3183 20 14.4028 20C15.3793 20 16.1994 19.6496 16.842 18.9532C16.8462 18.9447 16.8547 18.9405 16.8589 18.932C17.0787 18.6661 17.3323 18.4255 17.5987 18.168C17.7804 17.995 17.9664 17.8134 18.1482 17.6235C18.5667 17.1887 18.7865 16.6822 18.7865 16.163C18.7865 15.6396 18.5625 15.1372 18.1355 14.7151L15.8147 12.3893ZM17.3281 16.8341C17.3239 16.8341 17.3239 16.8384 17.3281 16.8341C17.1633 17.0114 16.9942 17.1718 16.8124 17.3491C16.5376 17.6108 16.2586 17.8852 15.9965 18.1933C15.5696 18.6492 15.0665 18.8645 14.4071 18.8645C14.3437 18.8645 14.276 18.8645 14.2126 18.8603C12.9571 18.7801 11.7904 18.2904 10.9153 17.8725C8.52269 16.7159 6.42173 15.0739 4.67586 12.9929C3.23436 11.258 2.27054 9.65398 1.63222 7.93176C1.23908 6.88069 1.09535 6.06179 1.15876 5.28932C1.20103 4.79545 1.39126 4.386 1.74213 4.03565L3.18363 2.59624C3.39077 2.40207 3.61058 2.29654 3.82618 2.29654C4.09249 2.29654 4.30809 2.45694 4.44336 2.59202C4.44759 2.59624 4.45181 2.60046 4.45604 2.60468C4.7139 2.84529 4.95909 3.09433 5.21695 3.36026C5.348 3.49534 5.48327 3.63042 5.61854 3.76971L6.77259 4.92209C7.22068 5.36953 7.22068 5.7832 6.77259 6.23064C6.65 6.35305 6.53164 6.47546 6.40905 6.59366C6.05395 6.95667 5.71577 7.29437 5.348 7.62361C5.33954 7.63206 5.33109 7.63628 5.32686 7.64472C4.96332 8.00774 5.03095 8.36231 5.10704 8.60292C5.11127 8.61558 5.1155 8.62824 5.11972 8.64091C5.41986 9.36694 5.84259 10.0508 6.48514 10.8654L6.48936 10.8697C7.65609 12.3049 8.88623 13.4235 10.2432 14.2803C10.4165 14.3901 10.5941 14.4787 10.7631 14.5632C10.9153 14.6391 11.0591 14.7109 11.1816 14.7869C11.1986 14.7953 11.2155 14.808 11.2324 14.8164C11.3761 14.8882 11.5114 14.922 11.6509 14.922C12.0017 14.922 12.2216 14.7025 12.2934 14.6307L13.7392 13.1871C13.8829 13.0436 14.1112 12.8705 14.3775 12.8705C14.6396 12.8705 14.8552 13.0351 14.9862 13.1786C14.9904 13.1829 14.9904 13.1829 14.9947 13.1871L17.3239 15.5129C17.7593 15.9435 17.7593 16.3867 17.3281 16.8341Z" fill="#00B2FF"/>
      <path d="M10.8095 4.75747C11.9171 4.9432 12.9232 5.46662 13.7264 6.26863C14.5295 7.07065 15.0495 8.07528 15.2397 9.18122C15.2862 9.45981 15.5272 9.65399 15.8019 9.65399C15.8358 9.65399 15.8654 9.64977 15.8992 9.64554C16.212 9.59489 16.4191 9.29941 16.3684 8.98705C16.1401 7.64895 15.506 6.42904 14.538 5.4624C13.5699 4.49576 12.3483 3.86258 11.0082 3.63464C10.6954 3.58399 10.4037 3.79083 10.3488 4.09897C10.2938 4.40711 10.4967 4.70681 10.8095 4.75747Z" fill="#00B2FF"/>
      <path d="M19.9913 8.82242C19.6151 6.61899 18.5752 4.61395 16.9773 3.01836C15.3794 1.42277 13.3714 0.384369 11.1648 0.00868773C10.8562 -0.0461871 10.5645 0.16487 10.5095 0.473013C10.4588 0.785377 10.6659 1.07664 10.9788 1.13151C12.9487 1.46498 14.7453 2.39785 16.1741 3.82038C17.6029 5.24712 18.5329 7.0411 18.8669 9.00815C18.9134 9.28675 19.1543 9.48092 19.4291 9.48092C19.4629 9.48092 19.4925 9.4767 19.5263 9.47248C19.8349 9.42605 20.0463 9.13057 19.9913 8.82242Z" fill="#00B2FF"/>
  </symbol>

  <symbol id="email" viewBox="0 0 21 20" fill="none">
    <path d="M18.0584 0H2.94568C1.59663 0 0.5 1.441 0.5 3.2137V16.7863C0.5 18.559 1.59663 20 2.94568 20H18.0543C19.4034 20 20.5 18.559 20.5 16.7863V3.21914C20.5041 1.44644 19.4075 0 18.0584 0ZM19.3868 16.7863C19.3868 17.7488 18.7909 18.5318 18.0584 18.5318H2.94568C2.21322 18.5318 1.61732 17.7488 1.61732 16.7863V3.21914C1.61732 2.25666 2.21322 1.47363 2.94568 1.47363H18.0543C18.7868 1.47363 19.3827 2.25666 19.3827 3.21914V16.7863H19.3868Z" fill="#00B2FF"/>
    <path d="M13.1133 9.83144L18.0047 4.06744C18.2323 3.79555 18.253 3.33334 18.0461 3.02883C17.8392 2.72975 17.4874 2.70256 17.2557 2.97445L10.5104 10.9299L9.19446 9.38554C9.19032 9.38011 9.18618 9.37467 9.18618 9.36923C9.15721 9.33117 9.12824 9.29854 9.09514 9.26591L3.74029 2.96901C3.50855 2.69713 3.1568 2.72431 2.94989 3.02883C2.74298 3.33334 2.76367 3.79555 2.99541 4.06744L7.94471 9.88038L3.0161 15.9435C2.79264 16.2208 2.78022 16.683 2.99127 16.9821C3.103 17.1343 3.25198 17.2159 3.40096 17.2159C3.53752 17.2159 3.67408 17.1506 3.78167 17.0201L8.78477 10.87L10.1421 12.4633C10.2497 12.5884 10.3821 12.6482 10.5145 12.6482C10.647 12.6482 10.7835 12.5829 10.887 12.4579L12.2816 10.8157L17.2557 17.0256C17.3633 17.1615 17.504 17.2268 17.6405 17.2268C17.7895 17.2268 17.9344 17.1506 18.0461 16.9984C18.2571 16.7047 18.2489 16.2371 18.0254 15.9598L13.1133 9.83144Z" fill="#00B2FF"/>
  </symbol>

  <symbol id="facebook" viewBox="0 0 30 30" fill="none">
    <path fill-rule="evenodd" clip-rule="evenodd" d="M30 15.0001C30 6.71625 23.2847 0 14.9999 0C6.71532 0 0 6.71625 0 15.0001C0 23.2847 6.71522 30 14.9999 30C23.2847 30 30 23.2848 30 15.0001ZM18.7594 10.3266H16.8263C16.3059 10.3266 15.9403 10.7672 15.9403 11.3166V12.1782H18.7012L18.2541 14.9747H15.9394V22.4709H13.1137V14.9747H11.2388V12.1782H13.1137V10.7522H13.1194C13.1691 9.12656 13.7335 7.57877 16.4869 7.48125V7.47095H18.7594V10.3266Z" fill="#F8FDFF"/>
  </symbol>

  <symbol id="ok" viewBox="0 0 30 30" fill="none">
    <path d="M15.1711 12.6428C16.3282 12.6428 17.2282 11.6785 17.2068 10.6285C17.2282 9.57849 16.3496 8.59277 15.1925 8.59277C14.0782 8.59277 13.1568 9.49277 13.1568 10.6071C13.1568 11.7213 14.0568 12.6428 15.1711 12.6428Z" fill="#F8FDFF"/>
    <path d="M15 0C6.72856 0 0 6.72857 0 15C0 23.2929 6.72856 30 15 30C23.2928 30 29.9999 23.2714 29.9999 15C30.0214 6.72857 23.2928 0 15 0ZM15.2143 5.67857C17.9143 5.67857 20.1428 7.90714 20.1214 10.6286C20.1214 13.3714 17.8714 15.5786 15.1285 15.5357C12.4285 15.4929 10.2643 13.2857 10.2643 10.6071C10.2643 7.88571 12.4714 5.67857 15.2143 5.67857ZM20.7214 17.25C20.7214 17.2929 20.7 17.3143 20.7 17.3571C20.6357 17.7857 20.4214 18.1286 20.0571 18.3643C19.8214 18.5143 19.5643 18.6643 19.3071 18.7929C18.6643 19.1143 17.9785 19.3714 17.2714 19.5429C17.1857 19.5643 17.1857 19.5643 17.25 19.6286C17.6357 20.0143 18.0428 20.4214 18.4285 20.8071C18.9214 21.3 19.4357 21.8143 19.9285 22.3071C20.6357 23.0143 20.4428 24.1929 19.5428 24.6214C19.3928 24.7071 19.2214 24.7286 19.05 24.7714C18.9643 24.7714 18.8571 24.7714 18.7714 24.7714C18.75 24.7714 18.7285 24.7714 18.7285 24.75C18.3857 24.7071 18.1071 24.5357 17.85 24.3C16.9928 23.4429 16.1143 22.5643 15.2571 21.7071C15.1928 21.6429 15.1928 21.6429 15.1285 21.7071C14.25 22.5857 13.3928 23.4429 12.5143 24.3214C12.3643 24.4714 12.2143 24.5786 12.0214 24.6643C11.8928 24.7286 11.7428 24.75 11.6143 24.7714C11.5286 24.7714 11.4428 24.7714 11.3357 24.7714C11.2928 24.7714 11.2714 24.75 11.2286 24.75C10.65 24.6429 10.2643 24.3214 10.0928 23.7643C9.92141 23.2071 10.05 22.7143 10.4571 22.3071C10.8214 21.9429 11.1643 21.6 11.5286 21.2357C12.0643 20.7 12.6 20.1643 13.1143 19.65C13.1785 19.5857 13.1785 19.5857 13.0928 19.5643C13.0714 19.5643 13.0285 19.5429 13.0071 19.5429C12.0428 19.3071 11.1643 18.9214 10.3286 18.4071C9.8357 18.0857 9.59998 17.6143 9.66427 17.0357C9.77141 15.9643 10.9714 15.3857 11.8714 15.9643C12.0428 16.0714 12.1928 16.1571 12.3857 16.2429C13.3714 16.7357 14.4214 16.95 15.5143 16.8857C16.05 16.8643 16.5857 16.7571 17.1214 16.5857C17.6357 16.4143 18.0857 16.1786 18.5571 15.9214C19.3285 15.4714 20.3357 15.8357 20.6357 16.6714C20.6785 16.8 20.7 16.9071 20.7214 17.0357C20.7214 17.1 20.7214 17.1643 20.7214 17.25Z" fill="#F8FDFF"/>
  </symbol>

  <symbol id="vk" viewBox="0 0 30 30" fill="none">
    <path d="M21.617 17.4544C20.3818 16.2726 20.2935 16.2726 21.3523 14.9091C22.6758 13.1819 24.4405 11.0002 22.8523 11.0002H19.9406C19.4112 11.0002 19.323 11.3638 19.1465 11.8184C18.4406 13.5455 17.0289 15.8181 16.4995 15.4545C15.9701 15.0909 16.2348 13.7273 16.2348 11.5457C16.323 11.2729 16.2348 11.0002 16.0583 10.8184C15.8819 10.6366 15.6172 10.4548 15.3525 10.4548C14.9113 10.3639 14.4702 10.273 14.029 10.273C12.3526 10.273 11.2056 11.0002 11.8232 11.0911C12.9702 11.2729 12.882 13.8182 12.6173 14.9091C12.1761 16.8181 10.4115 13.4546 9.61736 11.7275C9.52913 11.2729 9.1762 11.0002 8.73504 11.0002H6.44099C6.08806 11.0002 5.82336 11.0911 5.82336 11.3638C5.82336 11.8184 8.02917 16.2726 10.0585 18.5452C12.0879 20.7269 14.1172 20.5451 15.529 20.5451C15.7054 20.5451 15.8819 20.4542 15.9701 20.3633C16.0583 20.2724 16.1466 20.0906 16.1466 19.9088C16.1466 18.4543 16.676 17.7271 17.6465 18.727C18.7053 19.8179 18.97 20.5451 20.2935 20.5451H22.6758C23.2934 20.5451 23.4699 20.3633 23.4699 20.0906C23.5581 19.4543 22.4993 18.2725 21.617 17.4544ZM15.3525 0.000910576C23.5581 0.182718 30.0873 7.00048 29.9991 15.2727C29.9109 23.5449 23.117 30.09 14.9113 29.9991C6.61745 29.9082 0 23.2722 0 15C0.0882327 6.63687 6.97038 -0.0899929 15.3525 0.000910576Z" fill="#F8FDFF"/>
  </symbol>

</symbol>
</svg>
